<svg width="19" height="20" viewBox="0 0 19 20" fill="none" xmlns="http://www.w3.org/2000/svg">
<path d="M18.8037 9.53898L9.63754 0.200536C9.50671 0.0670326 9.35583 0 9.18533 0C9.01502 0 8.86436 0.0670326 8.73326 0.200536L7.74968 1.20252C7.61858 1.33609 7.55313 1.48953 7.55313 1.66346C7.55313 1.83739 7.61858 1.99083 7.74968 2.12441L15.4799 10.0001L7.74975 17.8761C7.61865 18.0097 7.5532 18.1634 7.5532 18.3368C7.5532 18.5107 7.61865 18.6644 7.74975 18.798L8.73332 19.7997C8.86436 19.9334 9.01502 20 9.1854 20C9.35611 20 9.50678 19.9332 9.63754 19.7997L18.8037 10.4612C18.9348 10.3277 19.0001 10.1739 19.0001 10.0002C19.0001 9.82656 18.9348 9.67284 18.8037 9.53898Z" fill="#1991EB"/>
<path d="M11.4473 10.0002C11.4473 9.82656 11.382 9.67277 11.2505 9.53898L2.08489 0.200536C1.95385 0.0670326 1.80298 0 1.63254 0C1.4621 0 1.31116 0.0670326 1.18012 0.200536L0.196756 1.20259C0.0654476 1.33616 0 1.4896 0 1.66353C0 1.83747 0.0654476 1.9909 0.196756 2.12448L7.92674 10.0002L0.196756 17.8761C0.0654476 18.0097 0 18.1634 0 18.3368C0 18.5107 0.0654476 18.6644 0.196756 18.798L1.18006 19.7997C1.31116 19.9334 1.46203 20 1.63247 20C1.80291 20 1.95378 19.9332 2.08489 19.7997L11.2505 10.4612C11.382 10.3277 11.4473 10.1739 11.4473 10.0002Z" fill="#1991EB"/>
</svg>
